<svg xmlns="http://www.w3.org/2000/svg" width="80" height="80" viewBox="0 0 80 80" fill="none">
  <g filter="url(#filter0_i_26_126)">
    <path d="M7.47267 45.0329C5.37408 46.1193 3.35943 47.1639 1.17689 48.0414C1.07995 48.0791 1.00051 48.1512 0.953979 48.2439C0.907447 48.3365 0.897141 48.4431 0.925062 48.5429C1.42872 50.9664 2.18422 53.2646 3.1076 55.4374C3.1454 55.534 3.21787 55.613 3.31093 55.6594C3.404 55.7057 3.51103 55.716 3.61126 55.6882C7.58475 54.7464 11.3724 53.1505 14.8178 50.9664C21.7431 47.1639 29.5499 42.8183 46.5065 42.8183C60.5671 42.8183 71.2699 41.3976 79.6643 39.6426C79.8322 39.6008 80.0001 39.3919 80.0001 39.2247C79.9405 35.9792 79.4896 32.7525 78.657 29.6141C78.573 29.3216 78.2372 29.1962 78.0274 29.2798L77.6077 29.4052C68.7936 32.7898 56.6637 37.4697 39.2034 37.4697C22.0789 37.5951 14.3141 41.5647 7.47267 45.0329V45.0329Z" fill="#C1C1C1"/>
    <path d="M61.1963 62.8336C65.1836 62.8336 68.8352 62.959 72.4028 63.1261C72.5287 63.1261 72.7385 63.0843 72.7805 62.959C73.8298 61.4129 74.8371 59.8251 75.6346 58.1537C75.7605 57.8612 75.5926 57.4851 75.2568 57.5269C71.0597 57.6105 66.6106 57.5269 61.616 57.5269H53.8932C39.3289 57.5269 32.9072 61.4129 26.6954 65.1736C23.1278 67.2629 19.6861 69.3939 15.1531 70.4803C14.7334 70.5221 14.7334 71.0236 14.9433 71.3161C17.4616 73.28 20.1898 74.9932 23.1278 76.3721C26.9234 75.3294 30.4943 73.6014 33.6627 71.2743C41.6074 65.4216 51.3208 62.4439 61.1963 62.8336Z" fill="#C1C1C1"/>
    <path d="M61.196 67.4299C47.9749 67.4299 41.9729 71.3578 36.2228 75.1184C34.6278 76.2049 32.9909 77.2495 31.1861 78.2523C30.8084 78.4195 30.8504 79.0045 31.312 79.088C37.8895 80.5087 44.7197 80.2663 51.1789 78.3832C57.6381 76.5 63.5206 73.036 68.2893 68.3074C68.5411 68.0567 68.3732 67.5553 67.9955 67.5553C65.8129 67.5135 63.5464 67.4299 61.196 67.4299Z" fill="#C1C1C1"/>
    <path d="M5.33211 40.9799C9.40379 38.7131 13.71 36.8918 18.1755 35.5478C24.2195 33.8346 31.1028 32.9571 39.1614 32.9571C46.5485 32.9571 53.4738 32.1214 60.4832 30.3247C66.5271 28.7786 71.5217 26.8565 75.9288 25.1851C76.1387 25.1433 76.3485 25.0597 76.5164 24.9344C76.7682 24.8926 76.8942 24.5583 76.7682 24.3076C73.1695 15.8215 66.7242 8.84183 58.5323 4.55972C50.3404 0.27761 40.9096 -1.04149 31.8496 0.827552C22.7897 2.69659 14.662 7.63792 8.85379 14.8082C3.04559 21.9785 -0.0831019 30.9333 0.0016788 40.1442L0.0436506 42.8603C0.0436506 43.1945 0.463369 43.3617 0.673229 43.2781C2.31013 42.5678 3.77915 41.7738 5.33211 40.9381V40.9799Z" fill="#C1C1C1"/>
    <path d="M23.8836 60.9951C30.3892 57.1509 37.6923 52.7216 53.4738 52.7216H61.2385L77.1879 52.6798C77.3977 52.6798 77.6076 52.5545 77.6495 52.3455C78.489 49.922 79.0346 47.4567 79.3284 44.9078C79.4124 44.5735 79.0766 44.3228 78.7828 44.4063C70.3884 46.0777 59.8115 47.3731 46.1706 47.3731C39.1194 47.3731 33.1594 48.2088 27.9549 49.7966C24.0225 51.0995 20.2494 52.8375 16.7064 54.978C13.2227 56.9002 9.86497 58.7387 5.62581 59.8251C5.29004 59.8669 5.2061 60.243 5.37398 60.4937C6.63314 62.583 7.97624 64.4633 9.57117 66.2601C9.73906 66.3854 9.86497 66.469 9.99089 66.3854C15.0006 65.7968 19.7795 63.957 23.8836 61.0369V60.9951Z" fill="#C1C1C1"/>
  </g>
  <defs>
    <filter id="filter0_i_26_126" x="0" y="-23.0845" width="80" height="103.085" filterUnits="userSpaceOnUse" color-interpolation-filters="sRGB">
      <feFlood flood-opacity="0" result="BackgroundImageFix"/>
      <feBlend mode="normal" in="SourceGraphic" in2="BackgroundImageFix" result="shape"/>
      <feColorMatrix in="SourceAlpha" type="matrix" values="0 0 0 0 0 0 0 0 0 0 0 0 0 0 0 0 0 0 127 0" result="hardAlpha"/>
      <feOffset dy="-28.8557"/>
      <feGaussianBlur stdDeviation="11.5423"/>
      <feComposite in2="hardAlpha" operator="arithmetic" k2="-1" k3="1"/>
      <feColorMatrix type="matrix" values="0 0 0 0 0 0 0 0 0 0 0 0 0 0 0 0 0 0 0.26 0"/>
      <feBlend mode="normal" in2="shape" result="effect1_innerShadow_26_126"/>
    </filter>
  </defs>
</svg>